<svg width="659" height="553" viewBox="0 0 659 553" fill="none" xmlns="http://www.w3.org/2000/svg">
<rect x="44.3701" y="18" width="202" height="202" rx="10" fill="#5065A8"/>
<rect x="413.37" y="321" width="202" height="202" rx="10" fill="#5065A8"/>
<g filter="url(#filter0_d_16_401)">
<rect width="478.534" height="414.463" rx="22.8599" transform="matrix(0.997859 -0.0654031 -0.172789 0.984959 126.734 82.2662)" fill="white" shape-rendering="crispEdges"/>
<path d="M325.781 132.153L324.807 132.216L336.981 113.553L339.414 113.394L335.99 132.908L333.557 133.067L336.248 117.726L336.714 117.815L326.258 133.546L323.825 133.705L318.703 119.025L319.211 118.873L316.525 134.184L314.092 134.343L317.515 114.829L319.948 114.67L325.781 132.153ZM347.095 111.407L346.584 114.319L343.421 114.526L343.931 111.614L347.095 111.407ZM343.243 117.594L345.676 117.435L343.043 132.446L340.61 132.605L343.243 117.594ZM352.894 132.097C351.698 132.175 350.651 131.917 349.753 131.323C348.879 130.708 348.239 129.84 347.835 128.719C347.454 127.577 347.395 126.255 347.658 124.754C347.922 123.253 348.461 121.892 349.277 120.671C350.092 119.45 351.076 118.466 352.23 117.718C353.404 116.968 354.639 116.551 355.937 116.466C357.356 116.373 358.368 116.662 358.971 117.335C359.599 117.986 359.941 118.894 359.997 120.057C360.074 121.22 359.986 122.521 359.733 123.962C359.6 124.723 359.373 125.559 359.053 126.47C358.736 127.361 358.303 128.231 357.753 129.078C357.228 129.904 356.564 130.6 355.763 131.167C354.966 131.714 354.01 132.024 352.894 132.097ZM353.903 129.775C354.937 129.707 355.832 129.401 356.589 128.857C357.367 128.312 357.989 127.618 358.458 126.776C358.93 125.914 359.253 124.983 359.429 123.982C359.622 122.881 359.618 121.932 359.417 121.134C359.24 120.315 358.848 119.698 358.239 119.282C357.654 118.846 356.855 118.661 355.841 118.727C354.32 118.827 353.051 119.434 352.034 120.55C351.02 121.645 350.372 122.993 350.092 124.594C349.906 125.655 349.941 126.592 350.2 127.406C350.481 128.199 350.935 128.812 351.56 129.246C352.21 129.659 352.99 129.835 353.903 129.775ZM360.751 116.447L363.184 116.287L360.551 131.298L358.33 131.444C358.33 131.444 358.342 131.265 358.364 130.907C358.407 130.548 358.451 130.13 358.494 129.652C358.538 129.175 358.588 128.776 358.644 128.455L360.751 116.447ZM367.148 116.028L369.581 115.868L366.948 130.879L364.515 131.038L367.148 116.028ZM374.865 115.225C375.676 115.172 376.385 115.244 376.992 115.442C377.599 115.639 378.085 115.954 378.45 116.385C378.815 116.816 379.062 117.354 379.189 117.998C379.32 118.623 379.314 119.345 379.17 120.166L377.411 130.193L374.977 130.353L376.631 120.926C376.835 119.765 376.714 118.912 376.268 118.368C375.822 117.823 375.052 117.587 373.957 117.659C373.126 117.713 372.319 117.974 371.535 118.441C370.752 118.907 370.062 119.526 369.466 120.297C368.893 121.047 368.472 121.906 368.202 122.873L368.477 121.134C368.726 120.287 369.062 119.513 369.486 118.812C369.929 118.111 370.427 117.504 370.977 116.993C371.552 116.461 372.166 116.045 372.82 115.745C373.494 115.444 374.176 115.27 374.865 115.225ZM385.085 114.555C385.896 114.502 386.604 114.574 387.211 114.772C387.818 114.97 388.304 115.284 388.669 115.715C389.035 116.146 389.281 116.684 389.408 117.328C389.539 117.953 389.533 118.676 389.389 119.496L387.63 129.523L385.197 129.683L386.85 120.256C387.054 119.095 386.933 118.243 386.487 117.698C386.042 117.153 385.271 116.917 384.177 116.989C383.345 117.043 382.538 117.304 381.754 117.771C380.971 118.238 380.281 118.857 379.685 119.628C379.112 120.377 378.691 121.236 378.421 122.203L378.696 120.464C378.945 119.617 379.281 118.843 379.705 118.143C380.149 117.441 380.646 116.834 381.197 116.324C381.771 115.791 382.385 115.375 383.039 115.075C383.713 114.774 384.395 114.6 385.085 114.555ZM398.271 108.052L397.76 110.965L394.597 111.172L395.108 108.26L398.271 108.052ZM394.419 114.24L396.852 114.081L394.219 129.091L391.786 129.251L394.419 114.24Z" fill="#242121"/>
<path d="M276.94 230.991C260.972 232.038 255.201 225.516 256.992 215.309L257.202 214.108L265.87 213.54L265.686 214.591C264.527 221.195 266.725 224.093 277.978 223.355C288.547 222.663 292.771 220.012 293.811 214.083C294.706 208.979 291.617 206.882 285.229 207.3L271.011 208.232L272.196 201.477L285.274 200.62C291.433 200.216 295.021 197.756 295.811 193.252C296.667 188.374 294.034 186.247 284.149 186.894C273.732 187.577 269.847 190.874 268.688 197.478L268.596 198.004L259.928 198.572L260.046 197.896C261.771 188.064 270.361 180.231 286.176 179.194C299.179 178.342 305.725 182.587 304.224 191.143C303.223 196.847 299.09 201.124 292.367 202.603L292.262 203.204C299.413 203.996 303.113 207.76 301.888 214.74C300.216 224.272 290.854 230.079 276.94 230.991ZM327.988 227.645C312.629 228.652 305.242 219.343 308.047 203.356C310.838 187.445 321.713 176.865 337.073 175.858C352.432 174.851 359.805 184.236 357.014 200.147C354.21 216.133 343.347 226.638 327.988 227.645ZM329.357 219.84C340.23 219.127 346.071 213.254 348.27 200.72C350.469 188.186 346.577 182.951 335.703 183.664C324.83 184.376 318.914 190.254 316.715 202.788C314.516 215.322 318.484 220.552 329.357 219.84ZM396.345 223.165C380.529 224.201 371.827 214.682 374.579 198.996C377.33 183.309 389.614 172.414 405.43 171.378C419.8 170.436 428.521 177.283 426.414 189.292L426.23 190.343L417.181 190.936L417.366 189.885C418.709 182.23 414.49 178.426 404.149 179.103C392.212 179.886 385.445 185.894 383.247 198.427C381.048 210.961 385.852 216.137 397.79 215.354C408.131 214.676 413.784 210.3 415.141 202.569L415.312 201.593L424.36 201L424.189 201.976C422.069 214.06 410.792 222.218 396.345 223.165Z" fill="#242121"/>
<path d="M315.68 281.3C315.344 282.361 314.819 283.293 314.107 284.096C313.395 284.899 312.553 285.541 311.582 286.02C310.629 286.483 309.605 286.75 308.51 286.822C307.492 286.889 306.579 286.778 305.773 286.49C304.969 286.186 304.298 285.726 303.76 285.108C303.237 284.489 302.875 283.727 302.673 282.82C302.472 281.913 302.471 280.89 302.671 279.749C302.874 278.593 303.238 277.545 303.764 276.606C304.292 275.651 304.933 274.823 305.688 274.12C306.458 273.417 307.306 272.864 308.234 272.462C309.164 272.045 310.138 271.803 311.157 271.736C312.267 271.664 313.226 271.808 314.034 272.171C314.861 272.517 315.494 273.062 315.935 273.805C316.379 274.532 316.583 275.424 316.548 276.48L314.86 276.591C314.779 275.854 314.555 275.245 314.188 274.765C313.837 274.284 313.373 273.928 312.797 273.699C312.221 273.469 311.575 273.378 310.861 273.425C309.933 273.486 309.019 273.768 308.119 274.273C307.234 274.776 306.464 275.479 305.81 276.383C305.155 277.286 304.717 278.368 304.496 279.629C304.275 280.89 304.339 281.939 304.688 282.777C305.037 283.615 305.575 284.232 306.302 284.63C307.044 285.026 307.879 285.194 308.807 285.133C309.521 285.087 310.205 284.916 310.858 284.621C311.529 284.31 312.13 283.884 312.661 283.345C313.206 282.805 313.65 282.16 313.992 281.41L315.68 281.3ZM320.472 270.236L322.297 270.116L319.532 285.877L317.707 285.997L320.472 270.236ZM331.447 281.513L333.158 281.401C332.907 282.144 332.518 282.823 331.989 283.436C331.478 284.033 330.851 284.527 330.106 284.917C329.379 285.291 328.574 285.507 327.692 285.565C326.628 285.635 325.713 285.45 324.948 285.01C324.186 284.556 323.631 283.91 323.281 283.072C322.95 282.218 322.883 281.228 323.081 280.103C323.278 278.977 323.69 277.956 324.317 277.039C324.959 276.122 325.743 275.38 326.669 274.815C327.595 274.25 328.583 273.933 329.632 273.864C330.742 273.791 331.634 273.978 332.307 274.423C332.999 274.853 333.444 275.528 333.643 276.45C333.86 277.356 333.811 278.494 333.495 279.865L324.827 280.433C324.774 281.164 324.866 281.796 325.103 282.329C325.34 282.863 325.705 283.269 326.197 283.548C326.692 283.813 327.289 283.922 327.988 283.876C328.764 283.825 329.452 283.587 330.053 283.162C330.671 282.721 331.136 282.171 331.447 281.513ZM329.404 275.548C328.461 275.61 327.623 275.932 326.89 276.514C326.156 277.097 325.601 277.86 325.225 278.805L331.909 278.367C332.022 277.38 331.826 276.651 331.323 276.179C330.835 275.707 330.195 275.496 329.404 275.548ZM339.215 284.81C338.318 284.868 337.533 284.675 336.859 284.23C336.204 283.768 335.724 283.117 335.42 282.276C335.135 281.419 335.091 280.428 335.288 279.302C335.486 278.177 335.89 277.156 336.502 276.24C337.113 275.325 337.852 274.587 338.717 274.025C339.597 273.463 340.524 273.15 341.497 273.086C342.562 273.017 343.32 273.234 343.773 273.738C344.244 274.227 344.5 274.908 344.542 275.78C344.6 276.652 344.534 277.628 344.344 278.709C344.244 279.279 344.074 279.906 343.834 280.59C343.596 281.258 343.272 281.91 342.859 282.545C342.465 283.165 341.968 283.687 341.367 284.112C340.769 284.522 340.052 284.755 339.215 284.81ZM339.972 283.069C340.747 283.018 341.419 282.788 341.986 282.38C342.569 281.971 343.036 281.451 343.388 280.819C343.742 280.173 343.984 279.474 344.116 278.724C344.261 277.898 344.258 277.186 344.107 276.588C343.975 275.973 343.68 275.51 343.224 275.199C342.785 274.872 342.186 274.733 341.425 274.783C340.285 274.857 339.333 275.313 338.57 276.149C337.809 276.971 337.324 277.982 337.113 279.183C336.974 279.978 337.001 280.681 337.194 281.292C337.405 281.886 337.746 282.346 338.215 282.672C338.702 282.981 339.287 283.113 339.972 283.069ZM345.107 273.072L346.932 272.953L344.957 284.211L343.292 284.32C343.292 284.32 343.301 284.186 343.318 283.918C343.35 283.648 343.382 283.335 343.415 282.976C343.448 282.618 343.485 282.319 343.528 282.079L345.107 273.072ZM349.905 272.758L351.73 272.638L349.755 283.896L347.93 284.016L349.905 272.758ZM355.084 274.088C354.308 274.139 353.62 274.377 353.019 274.802C352.437 275.211 351.944 275.703 351.543 276.278C351.159 276.838 350.877 277.376 350.696 277.892L350.902 276.587C350.926 276.452 350.996 276.225 351.112 275.906C351.228 275.587 351.404 275.227 351.64 274.825C351.878 274.409 352.166 274.012 352.503 273.634C352.858 273.239 353.276 272.908 353.76 272.639C354.243 272.37 354.796 272.215 355.42 272.174L355.084 274.088Z" fill="#242121"/>
<path d="M374.185 174.035C372.766 174.128 371.704 173.752 371 172.908C370.305 172.014 370.085 170.841 370.34 169.39C370.594 167.939 371.231 166.735 372.251 165.778C373.271 164.821 374.49 164.296 375.91 164.203C377.329 164.11 378.391 164.485 379.094 165.33C379.798 166.174 380.023 167.321 379.768 168.772C379.514 170.223 378.872 171.452 377.844 172.46C376.824 173.417 375.604 173.942 374.185 174.035Z" fill="#242121"/>
<path d="M109.223 389.813C110.222 389.116 111.248 388.301 112.301 387.366C113.355 386.432 114.28 385.444 115.076 384.402C115.885 383.36 116.369 382.389 116.527 381.488C116.639 380.85 116.544 380.356 116.242 380.004C115.941 379.653 115.467 379.499 114.82 379.541C114.212 379.581 113.603 379.769 112.992 380.106C112.382 380.443 111.868 380.872 111.451 381.394L110.556 380.284C111.091 379.594 111.758 379.037 112.559 378.614C113.375 378.177 114.233 377.929 115.132 377.87C116.425 377.785 117.381 378.05 117.999 378.665C118.633 379.267 118.849 380.143 118.647 381.294C118.427 382.544 117.695 383.897 116.451 385.351C115.221 386.792 113.727 388.238 111.969 389.688L117.786 389.307L117.51 390.883L108.936 391.445L109.223 389.813ZM123.573 390.671C122.077 390.769 121.03 390.275 120.431 389.189C119.835 388.091 119.731 386.434 120.119 384.22C120.508 382.006 121.201 380.304 122.199 379.113C123.199 377.91 124.447 377.26 125.943 377.161C127.438 377.063 128.478 377.564 129.061 378.663C129.66 379.749 129.765 381.399 129.377 383.614C128.988 385.828 128.294 387.536 127.294 388.739C126.308 389.929 125.068 390.573 123.573 390.671ZM123.839 389.151C124.676 389.096 125.386 388.617 125.971 387.713C126.555 386.809 127 385.488 127.305 383.749C127.612 381.998 127.626 380.705 127.346 379.87C127.069 379.023 126.512 378.627 125.676 378.681C123.965 378.793 122.804 380.595 122.191 384.085C121.886 385.823 121.872 387.116 122.15 387.964C122.44 388.81 123.003 389.206 123.839 389.151ZM132.512 383.594C132.12 383.619 131.818 383.515 131.609 383.282C131.412 383.047 131.349 382.73 131.419 382.33C131.489 381.929 131.666 381.596 131.951 381.33C132.248 381.064 132.594 380.917 132.986 380.892C133.367 380.867 133.654 380.978 133.849 381.225C134.058 381.458 134.129 381.769 134.061 382.157C133.993 382.544 133.809 382.878 133.51 383.157C133.225 383.423 132.893 383.569 132.512 383.594ZM131.357 390.179C130.964 390.205 130.663 390.101 130.453 389.868C130.257 389.633 130.193 389.316 130.263 388.916C130.334 388.515 130.511 388.182 130.796 387.916C131.095 387.637 131.442 387.485 131.834 387.459C132.215 387.434 132.502 387.545 132.697 387.792C132.906 388.025 132.976 388.342 132.906 388.743C132.838 389.13 132.654 389.464 132.354 389.743C132.07 390.009 131.737 390.155 131.357 390.179ZM139.147 389.65C137.652 389.748 136.605 389.254 136.006 388.168C135.41 387.07 135.306 385.414 135.694 383.199C136.083 380.985 136.776 379.283 137.774 378.092C138.774 376.889 140.022 376.239 141.517 376.141C143.013 376.043 144.052 376.543 144.636 377.643C145.235 378.729 145.34 380.379 144.952 382.593C144.563 384.807 143.869 386.515 142.869 387.719C141.883 388.908 140.643 389.552 139.147 389.65ZM139.414 388.13C140.25 388.076 140.961 387.596 141.545 386.692C142.13 385.789 142.575 384.467 142.88 382.729C143.187 380.977 143.201 379.684 142.921 378.849C142.644 378.002 142.087 377.606 141.251 377.66C139.54 377.773 138.378 379.574 137.766 383.064C137.461 384.802 137.447 386.095 137.725 386.943C138.014 387.789 138.578 388.185 139.414 388.13ZM149.692 388.959C148.196 389.057 147.149 388.563 146.55 387.477C145.954 386.379 145.85 384.722 146.238 382.508C146.627 380.294 147.32 378.592 148.318 377.401C149.318 376.198 150.566 375.548 152.062 375.45C153.557 375.352 154.596 375.852 155.18 376.952C155.779 378.038 155.884 379.688 155.496 381.902C155.107 384.116 154.413 385.824 153.413 387.027C152.427 388.217 151.187 388.861 149.692 388.959ZM149.958 387.439C150.795 387.385 151.505 386.905 152.089 386.001C152.674 385.097 153.119 383.776 153.424 382.037C153.731 380.286 153.745 378.993 153.465 378.158C153.188 377.311 152.631 376.915 151.795 376.969C150.084 377.082 148.923 378.883 148.31 382.373C148.005 384.111 147.991 385.404 148.269 386.252C148.559 387.098 149.122 387.494 149.958 387.439Z" fill="#242121"/>
<g clip-path="url(#clip0_16_401)">
<path d="M134.061 396.988C134.905 398.602 135.224 400.598 134.842 402.779C133.847 408.652 128.13 413.722 122.107 414.116C120.075 414.25 118.249 413.813 116.777 412.97C117.994 416.473 121.376 418.685 125.796 418.396C132.033 417.987 137.958 412.73 139.026 406.643C139.816 402.14 137.715 398.452 134.061 396.988Z" fill="#FFCE31"/>
</g>
<path d="M106.318 441.992L108.561 441.845L110.174 432.651L107.329 434.303L107.651 432.464L111.311 430.239L112.661 430.151L110.633 441.709L112.857 441.563L112.581 443.139L106.042 443.568L106.318 441.992ZM119.461 442.874C118.042 442.967 116.98 442.703 116.274 442.081C115.584 441.446 115.343 440.535 115.552 439.346C115.683 438.596 115.992 437.908 116.477 437.283C116.975 436.656 117.597 436.183 118.343 435.862C117.862 435.671 117.505 435.317 117.27 434.801C117.049 434.271 116.994 433.694 117.104 433.068C117.286 432.03 117.806 431.174 118.663 430.499C119.533 429.824 120.589 429.446 121.831 429.364C123.073 429.283 124.013 429.53 124.651 430.107C125.289 430.683 125.517 431.491 125.335 432.529C125.225 433.154 124.964 433.753 124.55 434.324C124.139 434.882 123.654 435.291 123.095 435.551C123.731 435.781 124.186 436.184 124.461 436.759C124.749 437.334 124.827 437.997 124.695 438.747C124.489 439.923 123.913 440.882 122.969 441.624C122.037 442.365 120.868 442.782 119.461 442.874ZM120.85 434.956C121.471 434.915 121.996 434.708 122.425 434.333C122.856 433.946 123.125 433.453 123.23 432.852C123.333 432.264 123.232 431.807 122.926 431.481C122.622 431.142 122.159 430.993 121.538 431.034C120.917 431.075 120.385 431.289 119.941 431.677C119.512 432.051 119.246 432.532 119.143 433.12C119.038 433.721 119.137 434.19 119.441 434.529C119.759 434.854 120.229 434.996 120.85 434.956ZM119.754 441.204C120.527 441.153 121.173 440.901 121.691 440.446C122.211 439.979 122.536 439.377 122.666 438.639C122.793 437.913 122.672 437.353 122.303 436.956C121.934 436.56 121.363 436.387 120.59 436.438C119.817 436.489 119.165 436.742 118.634 437.197C118.119 437.639 117.796 438.229 117.666 438.967C117.537 439.705 117.655 440.278 118.022 440.687C118.404 441.082 118.981 441.255 119.754 441.204ZM135.789 441.804C134.597 441.882 133.606 441.675 132.816 441.182C132.038 440.689 131.497 439.952 131.193 438.97C130.89 437.989 130.858 436.81 131.1 435.434C131.341 434.058 131.791 432.848 132.451 431.803C133.11 430.758 133.932 429.931 134.915 429.323C135.912 428.713 137.012 428.369 138.216 428.29C139.191 428.226 140.027 428.357 140.721 428.683C141.416 429.008 141.881 429.497 142.117 430.149L140.748 431.315C140.246 430.321 139.317 429.869 137.961 429.958C136.719 430.039 135.684 430.546 134.857 431.478C134.031 432.398 133.476 433.671 133.191 435.297C132.908 436.911 133.018 438.14 133.521 438.985C134.024 439.83 134.878 440.213 136.082 440.134C136.817 440.086 137.466 439.919 138.029 439.635C138.595 439.338 139.089 438.917 139.51 438.37L140.498 439.381C140.012 440.08 139.356 440.643 138.53 441.068C137.716 441.492 136.802 441.737 135.789 441.804Z" fill="#242121"/>
<path d="M127.389 428.097C127.477 427.597 127.735 427.155 128.151 426.781C128.579 426.397 129.035 426.199 129.542 426.166C130.038 426.133 130.443 426.285 130.736 426.612C131.028 426.949 131.136 427.357 131.049 427.857C130.961 428.358 130.703 428.8 130.285 429.184C129.867 429.567 129.399 429.776 128.903 429.808C128.406 429.841 128.001 429.689 127.7 429.353C127.398 429.017 127.301 428.598 127.389 428.097ZM128.281 428.039C128.235 428.299 128.288 428.513 128.437 428.691C128.596 428.869 128.804 428.944 129.067 428.927C129.331 428.91 129.57 428.805 129.796 428.602C130.022 428.4 130.151 428.173 130.197 427.913C130.222 427.789 130.219 427.668 130.19 427.557C130.162 427.447 130.106 427.349 130.029 427.271C129.956 427.189 129.862 427.125 129.754 427.085C129.646 427.044 129.525 427.028 129.399 427.036C129.135 427.053 128.897 427.158 128.672 427.35C128.458 427.542 128.328 427.769 128.281 428.039Z" fill="#242121"/>
<path d="M198.946 383.932C199.945 383.236 200.971 382.42 202.024 381.486C203.078 380.551 204.003 379.563 204.799 378.522C205.608 377.479 206.092 376.508 206.25 375.607C206.362 374.969 206.267 374.475 205.965 374.124C205.664 373.773 205.19 373.618 204.543 373.66C203.935 373.7 203.326 373.889 202.716 374.225C202.105 374.562 201.592 374.992 201.174 375.513L200.279 374.404C200.814 373.713 201.481 373.156 202.282 372.733C203.098 372.296 203.956 372.048 204.855 371.989C206.148 371.905 207.104 372.17 207.722 372.784C208.356 373.386 208.572 374.262 208.37 375.413C208.151 376.664 207.418 378.016 206.174 379.47C204.944 380.911 203.45 382.357 201.692 383.807L207.509 383.426L207.233 385.002L198.66 385.564L198.946 383.932ZM210.697 383.217L212.94 383.07L214.553 373.876L211.707 375.528L212.03 373.689L215.69 371.465L217.039 371.376L215.012 382.934L217.236 382.789L216.959 384.365L210.42 384.793L210.697 383.217ZM222.236 377.713C221.843 377.739 221.542 377.635 221.332 377.401C221.135 377.167 221.072 376.849 221.142 376.449C221.212 376.049 221.39 375.716 221.674 375.45C221.972 375.183 222.317 375.037 222.71 375.011C223.09 374.986 223.377 375.097 223.572 375.344C223.781 375.577 223.852 375.888 223.784 376.276C223.716 376.664 223.532 376.997 223.233 377.276C222.948 377.542 222.616 377.688 222.236 377.713ZM221.08 384.299C220.687 384.324 220.386 384.221 220.177 383.987C219.98 383.753 219.916 383.435 219.987 383.035C220.057 382.635 220.234 382.302 220.519 382.036C220.818 381.756 221.165 381.604 221.558 381.578C221.938 381.553 222.225 381.664 222.42 381.911C222.629 382.145 222.699 382.461 222.629 382.862C222.561 383.25 222.377 383.583 222.078 383.862C221.793 384.128 221.46 384.274 221.08 384.299ZM228.871 383.77C227.375 383.868 226.328 383.374 225.729 382.288C225.133 381.189 225.029 379.533 225.417 377.319C225.806 375.105 226.499 373.402 227.497 372.212C228.497 371.009 229.745 370.358 231.241 370.26C232.736 370.162 233.776 370.663 234.359 371.762C234.958 372.848 235.063 374.498 234.675 376.712C234.286 378.926 233.592 380.635 232.592 381.838C231.606 383.028 230.366 383.672 228.871 383.77ZM229.137 382.25C229.974 382.195 230.684 381.716 231.269 380.812C231.853 379.908 232.298 378.587 232.603 376.848C232.91 375.097 232.924 373.803 232.644 372.969C232.367 372.121 231.81 371.725 230.974 371.78C229.263 371.892 228.102 373.693 227.489 377.183C227.184 378.922 227.17 380.215 227.448 381.062C227.738 381.909 228.301 382.305 229.137 382.25ZM239.415 383.078C237.919 383.176 236.872 382.682 236.274 381.597C235.677 380.498 235.573 378.842 235.961 376.628C236.35 374.414 237.043 372.711 238.041 371.521C239.041 370.317 240.289 369.667 241.785 369.569C243.28 369.471 244.32 369.971 244.903 371.071C245.502 372.157 245.607 373.807 245.219 376.021C244.83 378.235 244.136 379.944 243.136 381.147C242.15 382.337 240.91 382.98 239.415 383.078ZM239.681 381.559C240.518 381.504 241.228 381.024 241.813 380.121C242.397 379.217 242.842 377.895 243.147 376.157C243.454 374.405 243.468 373.112 243.189 372.278C242.911 371.43 242.354 371.034 241.518 371.089C239.807 371.201 238.646 373.002 238.033 376.492C237.728 378.231 237.715 379.524 237.992 380.371C238.282 381.218 238.845 381.613 239.681 381.559Z" fill="#242121"/>
<g clip-path="url(#clip1_16_401)">
<path d="M223.784 391.107C224.628 392.721 224.947 394.717 224.565 396.898C223.57 402.771 217.854 407.841 211.83 408.236C209.798 408.369 207.973 407.932 206.5 407.09C207.717 410.592 211.099 412.805 215.519 412.515C221.756 412.106 227.681 406.849 228.749 400.763C229.539 396.259 227.438 392.572 223.784 391.107Z" fill="#FFCE31"/>
</g>
<path d="M196.041 436.111L198.284 435.964L199.897 426.77L197.052 428.422L197.374 426.583L201.034 424.359L202.384 424.27L200.356 435.828L202.58 435.683L202.304 437.259L195.765 437.687L196.041 436.111ZM207.373 436.926C207.843 434.608 208.496 432.525 209.334 430.677C210.186 428.816 211.445 426.996 213.11 425.218L206.894 425.625L207.187 423.955L215.855 423.387L215.592 424.888C214.011 426.401 212.698 428.175 211.652 430.21C210.608 432.232 209.879 434.425 209.464 436.789L207.373 436.926ZM225.511 435.923C224.32 436.001 223.329 435.794 222.539 435.302C221.761 434.809 221.22 434.071 220.916 433.09C220.612 432.108 220.581 430.929 220.823 429.553C221.064 428.177 221.514 426.967 222.174 425.922C222.833 424.877 223.654 424.051 224.638 423.442C225.634 422.833 226.735 422.489 227.938 422.41C228.914 422.346 229.749 422.476 230.444 422.802C231.139 423.127 231.604 423.616 231.84 424.268L230.471 425.434C229.969 424.44 229.04 423.988 227.684 424.077C226.442 424.158 225.407 424.665 224.579 425.597C223.754 426.517 223.199 427.79 222.914 429.416C222.631 431.03 222.741 432.259 223.244 433.104C223.747 433.949 224.601 434.332 225.804 434.253C226.539 434.205 227.189 434.039 227.752 433.754C228.318 433.458 228.812 433.036 229.233 432.489L230.221 433.5C229.735 434.199 229.079 434.762 228.253 435.187C227.439 435.611 226.525 435.857 225.511 435.923Z" fill="#242121"/>
<path d="M217.111 422.216C217.199 421.716 217.457 421.274 217.873 420.9C218.302 420.516 218.757 420.318 219.264 420.285C219.761 420.252 220.165 420.404 220.459 420.731C220.75 421.068 220.859 421.476 220.771 421.977C220.684 422.477 220.426 422.919 220.008 423.303C219.59 423.686 219.122 423.895 218.625 423.927C218.128 423.96 217.724 423.808 217.422 423.472C217.121 423.136 217.024 422.717 217.111 422.216ZM218.004 422.158C217.958 422.418 218.011 422.632 218.16 422.811C218.319 422.988 218.526 423.063 218.79 423.046C219.053 423.029 219.292 422.924 219.518 422.721C219.744 422.519 219.874 422.293 219.92 422.032C219.944 421.909 219.942 421.787 219.913 421.677C219.884 421.566 219.829 421.468 219.752 421.391C219.678 421.308 219.585 421.244 219.477 421.204C219.369 421.164 219.248 421.147 219.122 421.155C218.858 421.172 218.619 421.277 218.395 421.47C218.181 421.662 218.051 421.888 218.004 422.158Z" fill="#242121"/>
<path d="M288.669 378.051C289.668 377.355 290.694 376.54 291.747 375.605C292.801 374.67 293.726 373.682 294.522 372.641C295.331 371.599 295.815 370.627 295.973 369.727C296.085 369.089 295.99 368.594 295.688 368.243C295.387 367.892 294.913 367.737 294.266 367.78C293.658 367.82 293.049 368.008 292.439 368.345C291.828 368.681 291.314 369.111 290.897 369.633L290.002 368.523C290.537 367.833 291.204 367.276 292.005 366.852C292.821 366.415 293.679 366.168 294.578 366.109C295.871 366.024 296.827 366.289 297.445 366.904C298.079 367.505 298.295 368.381 298.093 369.532C297.873 370.783 297.141 372.135 295.897 373.59C294.667 375.03 293.173 376.476 291.415 377.927L297.232 377.545L296.956 379.122L288.382 379.683L288.669 378.051ZM299.213 377.36C300.212 376.664 301.238 375.849 302.291 374.914C303.345 373.979 304.27 372.991 305.066 371.95C305.876 370.908 306.359 369.936 306.517 369.036C306.629 368.398 306.534 367.903 306.232 367.552C305.931 367.201 305.457 367.046 304.81 367.089C304.202 367.129 303.593 367.317 302.983 367.654C302.372 367.99 301.859 368.42 301.441 368.942L300.546 367.832C301.081 367.141 301.748 366.585 302.549 366.161C303.365 365.724 304.223 365.476 305.122 365.417C306.415 365.333 307.371 365.598 307.989 366.213C308.623 366.814 308.839 367.69 308.637 368.841C308.418 370.092 307.685 371.444 306.441 372.898C305.211 374.339 303.717 375.785 301.959 377.236L307.776 376.854L307.5 378.43L298.927 378.992L299.213 377.36ZM311.958 371.832C311.566 371.858 311.264 371.754 311.055 371.52C310.858 371.286 310.795 370.969 310.865 370.568C310.935 370.168 311.113 369.835 311.397 369.569C311.695 369.302 312.04 369.156 312.432 369.13C312.813 369.105 313.1 369.216 313.295 369.463C313.504 369.697 313.575 370.007 313.507 370.395C313.439 370.783 313.255 371.116 312.956 371.396C312.671 371.662 312.339 371.807 311.958 371.832ZM310.803 378.418C310.41 378.444 310.109 378.34 309.899 378.106C309.703 377.872 309.639 377.555 309.709 377.154C309.78 376.754 309.957 376.421 310.242 376.155C310.541 375.876 310.888 375.723 311.28 375.697C311.661 375.672 311.948 375.783 312.143 376.03C312.352 376.264 312.422 376.581 312.352 376.981C312.284 377.369 312.1 377.702 311.8 377.982C311.516 378.248 311.183 378.393 310.803 378.418ZM318.593 377.889C317.098 377.987 316.051 377.493 315.452 376.407C314.856 375.308 314.752 373.652 315.14 371.438C315.529 369.224 316.222 367.522 317.22 366.331C318.22 365.128 319.468 364.477 320.963 364.379C322.459 364.281 323.498 364.782 324.082 365.881C324.681 366.967 324.786 368.617 324.398 370.831C324.009 373.045 323.315 374.754 322.315 375.957C321.329 377.147 320.089 377.791 318.593 377.889ZM318.86 376.369C319.696 376.314 320.407 375.835 320.991 374.931C321.576 374.027 322.021 372.706 322.326 370.967C322.633 369.216 322.647 367.923 322.367 367.088C322.09 366.24 321.533 365.844 320.697 365.899C318.986 366.011 317.824 367.812 317.212 371.302C316.907 373.041 316.893 374.334 317.171 375.181C317.461 376.028 318.024 376.424 318.86 376.369ZM329.138 377.198C327.642 377.296 326.595 376.802 325.996 375.716C325.4 374.617 325.296 372.961 325.684 370.747C326.073 368.533 326.766 366.83 327.764 365.64C328.764 364.437 330.012 363.786 331.508 363.688C333.003 363.59 334.043 364.091 334.626 365.19C335.225 366.276 335.33 367.926 334.942 370.14C334.553 372.354 333.859 374.063 332.859 375.266C331.873 376.456 330.633 377.1 329.138 377.198ZM329.404 375.678C330.241 375.623 330.951 375.144 331.536 374.24C332.12 373.336 332.565 372.015 332.87 370.276C333.177 368.525 333.191 367.232 332.911 366.397C332.634 365.549 332.077 365.153 331.241 365.208C329.53 365.32 328.369 367.121 327.756 370.611C327.451 372.35 327.437 373.643 327.715 374.49C328.005 375.337 328.568 375.733 329.404 375.678Z" fill="#242121"/>
<g clip-path="url(#clip2_16_401)">
<path d="M313.507 385.226C314.351 386.84 314.67 388.836 314.287 391.018C313.292 396.891 307.576 401.96 301.553 402.355C299.521 402.488 297.695 402.051 296.222 401.209C297.44 404.711 300.822 406.924 305.241 406.634C311.479 406.225 317.404 400.968 318.472 394.882C319.262 390.379 317.16 386.691 313.507 385.226Z" fill="#FFCE31"/>
</g>
<path d="M285.764 430.23L288.007 430.083L289.62 420.889L286.775 422.541L287.097 420.702L290.757 418.478L292.107 418.389L290.079 429.948L292.303 429.802L292.027 431.378L285.487 431.806L285.764 430.23ZM299.002 431.106C298.077 431.167 297.302 431.014 296.678 430.646C296.068 430.266 295.639 429.713 295.39 428.987C295.157 428.248 295.126 427.385 295.3 426.397C295.543 425.008 296.116 423.672 297.017 422.389C297.934 421.092 299.06 419.992 300.396 419.089C301.745 418.184 303.151 417.597 304.613 417.328L304.53 418.873C303.348 419.186 302.226 419.729 301.163 420.504C300.102 421.266 299.275 422.161 298.681 423.189C298.891 422.99 299.172 422.817 299.524 422.67C299.89 422.51 300.27 422.417 300.662 422.391C301.55 422.333 302.277 422.471 302.845 422.805C303.427 423.125 303.825 423.606 304.039 424.247C304.264 424.888 304.303 425.633 304.154 426.484C304.007 427.322 303.691 428.085 303.207 428.772C302.738 429.445 302.141 429.992 301.417 430.41C300.694 430.816 299.889 431.048 299.002 431.106ZM299.276 429.437C299.998 429.39 300.618 429.108 301.134 428.592C301.651 428.076 301.98 427.412 302.123 426.599C302.266 425.785 302.164 425.149 301.819 424.69C301.474 424.23 300.94 424.024 300.217 424.071C299.495 424.118 298.869 424.401 298.34 424.918C297.824 425.434 297.494 426.098 297.352 426.911C297.209 427.724 297.31 428.361 297.656 428.82C298.014 429.279 298.554 429.485 299.276 429.437ZM315.234 430.042C314.043 430.12 313.052 429.913 312.262 429.421C311.484 428.928 310.943 428.191 310.639 427.209C310.335 426.227 310.304 425.048 310.546 423.672C310.787 422.296 311.237 421.086 311.897 420.041C312.556 418.996 313.377 418.17 314.361 417.561C315.357 416.952 316.457 416.608 317.661 416.529C318.637 416.465 319.472 416.596 320.167 416.921C320.861 417.247 321.327 417.735 321.563 418.388L320.194 419.553C319.692 418.56 318.762 418.107 317.406 418.196C316.165 418.278 315.13 418.785 314.302 419.717C313.477 420.636 312.922 421.909 312.637 423.535C312.353 425.149 312.464 426.378 312.967 427.223C313.47 428.068 314.323 428.451 315.527 428.372C316.262 428.324 316.912 428.158 317.475 427.874C318.041 427.577 318.534 427.155 318.956 426.608L319.944 427.619C319.458 428.319 318.802 428.881 317.975 429.306C317.162 429.73 316.248 429.976 315.234 430.042Z" fill="#242121"/>
<path d="M306.834 416.336C306.922 415.835 307.18 415.393 307.596 415.02C308.025 414.636 308.48 414.437 308.987 414.404C309.484 414.372 309.888 414.523 310.182 414.85C310.473 415.187 310.582 415.596 310.494 416.096C310.406 416.596 310.148 417.039 309.73 417.422C309.312 417.806 308.845 418.014 308.348 418.047C307.851 418.079 307.447 417.928 307.145 417.592C306.843 417.255 306.747 416.836 306.834 416.336ZM307.727 416.277C307.681 416.538 307.733 416.752 307.883 416.93C308.042 417.107 308.249 417.183 308.513 417.166C308.776 417.148 309.015 417.044 309.241 416.841C309.467 416.638 309.597 416.412 309.643 416.152C309.667 416.028 309.665 415.907 309.636 415.796C309.607 415.685 309.552 415.588 309.475 415.51C309.401 415.427 309.308 415.364 309.2 415.323C309.091 415.283 308.971 415.266 308.845 415.274C308.581 415.291 308.342 415.396 308.118 415.589C307.904 415.781 307.774 416.007 307.727 416.277Z" fill="#242121"/>
<path d="M378.392 372.17C379.391 371.474 380.417 370.659 381.471 369.724C382.524 368.79 383.449 367.802 384.245 366.76C385.055 365.718 385.538 364.747 385.696 363.846C385.808 363.208 385.713 362.713 385.411 362.362C385.11 362.011 384.636 361.857 383.99 361.899C383.381 361.939 382.772 362.127 382.162 362.464C381.551 362.801 381.038 363.23 380.62 363.752L379.725 362.642C380.26 361.952 380.927 361.395 381.728 360.971C382.544 360.535 383.402 360.287 384.301 360.228C385.594 360.143 386.55 360.408 387.168 361.023C387.802 361.624 388.018 362.501 387.816 363.651C387.597 364.902 386.864 366.255 385.62 367.709C384.39 369.15 382.896 370.595 381.138 372.046L386.955 371.665L386.679 373.241L378.106 373.803L378.392 372.17ZM392.609 373.038C391.646 373.101 390.815 372.982 390.116 372.682C389.429 372.38 388.956 371.935 388.696 371.347L389.927 370.116C390.192 370.531 390.586 370.858 391.108 371.096C391.645 371.32 392.217 371.413 392.826 371.373C393.586 371.323 394.23 371.077 394.759 370.634C395.303 370.178 395.634 369.612 395.752 368.937C395.882 368.199 395.697 367.642 395.2 367.266C394.702 366.891 393.952 366.736 392.951 366.802L392.115 366.857L392.388 365.299L393.205 365.246C394.042 365.191 394.749 364.94 395.329 364.494C395.91 364.036 396.26 363.469 396.379 362.793C396.475 362.243 396.366 361.83 396.051 361.554C395.737 361.277 395.25 361.161 394.591 361.204C393.97 361.245 393.364 361.414 392.773 361.713C392.197 361.998 391.69 362.383 391.254 362.87L390.47 361.771C390.994 361.143 391.666 360.629 392.488 360.229C393.325 359.816 394.193 359.579 395.093 359.521C395.878 359.469 396.546 359.555 397.096 359.779C397.645 360.002 398.042 360.347 398.286 360.814C398.532 361.267 398.6 361.807 398.49 362.432C398.363 363.158 398.041 363.816 397.524 364.406C397.007 364.996 396.344 365.454 395.536 365.779C396.429 365.968 397.068 366.328 397.451 366.859C397.846 367.39 397.97 368.074 397.823 368.912C397.692 369.663 397.384 370.344 396.901 370.957C396.432 371.557 395.821 372.042 395.067 372.413C394.328 372.77 393.508 372.979 392.609 373.038ZM401.682 365.951C401.289 365.977 400.988 365.873 400.778 365.64C400.581 365.405 400.518 365.088 400.588 364.688C400.658 364.287 400.836 363.954 401.12 363.688C401.418 363.421 401.763 363.275 402.156 363.249C402.536 363.224 402.823 363.335 403.018 363.582C403.228 363.816 403.298 364.127 403.23 364.514C403.162 364.902 402.978 365.236 402.679 365.515C402.394 365.781 402.062 365.926 401.682 365.951ZM400.526 372.537C400.133 372.563 399.832 372.459 399.623 372.226C399.426 371.991 399.362 371.674 399.433 371.273C399.503 370.873 399.68 370.54 399.965 370.274C400.264 369.995 400.611 369.842 401.004 369.817C401.384 369.792 401.671 369.903 401.866 370.15C402.075 370.383 402.145 370.7 402.075 371.1C402.007 371.488 401.823 371.822 401.524 372.101C401.239 372.367 400.906 372.512 400.526 372.537ZM408.317 372.008C406.821 372.106 405.774 371.612 405.175 370.526C404.579 369.428 404.475 367.771 404.863 365.557C405.252 363.343 405.945 361.641 406.943 360.45C407.943 359.247 409.191 358.596 410.687 358.498C412.182 358.4 413.222 358.901 413.805 360C414.404 361.086 414.509 362.736 414.121 364.951C413.732 367.165 413.038 368.873 412.038 370.076C411.052 371.266 409.812 371.91 408.317 372.008ZM408.583 370.488C409.42 370.433 410.13 369.954 410.715 369.05C411.299 368.146 411.744 366.825 412.049 365.086C412.356 363.335 412.37 362.042 412.09 361.207C411.813 360.36 411.256 359.963 410.42 360.018C408.709 360.13 407.548 361.931 406.935 365.421C406.63 367.16 406.616 368.453 406.894 369.301C407.184 370.147 407.747 370.543 408.583 370.488ZM418.861 371.317C417.365 371.415 416.318 370.921 415.72 369.835C415.123 368.737 415.019 367.08 415.407 364.866C415.796 362.652 416.489 360.95 417.487 359.759C418.487 358.556 419.735 357.905 421.231 357.807C422.726 357.709 423.766 358.21 424.35 359.309C424.948 360.395 425.053 362.045 424.665 364.259C424.277 366.473 423.582 368.182 422.582 369.385C421.597 370.575 420.356 371.219 418.861 371.317ZM419.127 369.797C419.964 369.742 420.674 369.263 421.259 368.359C421.843 367.455 422.288 366.134 422.593 364.395C422.9 362.644 422.914 361.351 422.635 360.516C422.357 359.669 421.8 359.272 420.964 359.327C419.253 359.439 418.092 361.24 417.479 364.73C417.174 366.469 417.161 367.762 417.438 368.61C417.728 369.456 418.291 369.852 419.127 369.797Z" fill="#242121"/>
<g clip-path="url(#clip3_16_401)">
<path d="M403.23 379.346C404.074 380.959 404.393 382.956 404.011 385.137C403.016 391.01 397.299 396.079 391.276 396.474C389.244 396.607 387.418 396.171 385.945 395.328C387.163 398.83 390.545 401.043 394.964 400.753C401.202 400.345 407.127 395.087 408.195 389.001C408.985 384.498 406.884 380.81 403.23 379.346Z" fill="#FFCE31"/>
</g>
<path d="M375.487 424.35L377.73 424.203L379.343 415.009L376.498 416.66L376.82 414.822L380.48 412.597L381.83 412.509L379.802 424.067L382.026 423.921L381.75 425.497L375.211 425.926L375.487 424.35ZM388.364 425.249C387.464 425.308 386.665 425.187 385.966 424.887C385.282 424.573 384.79 424.129 384.49 423.556L385.671 422.18C385.973 422.667 386.378 423.036 386.886 423.287C387.395 423.526 387.96 423.625 388.581 423.584C389.405 423.53 390.102 423.231 390.674 422.687C391.248 422.13 391.613 421.401 391.771 420.5C391.921 419.65 391.824 418.988 391.481 418.516C391.138 418.044 390.592 417.832 389.844 417.881C389.388 417.911 388.938 418.052 388.493 418.304C388.048 418.556 387.683 418.882 387.4 419.284L385.67 419.398L387.565 412.133L394.978 411.647L394.685 413.317L389.135 413.681L388.199 417.192C388.479 416.951 388.847 416.747 389.302 416.582C389.757 416.416 390.206 416.318 390.65 416.289C391.448 416.237 392.121 416.366 392.668 416.676C393.215 416.987 393.596 417.456 393.811 418.085C394.027 418.714 394.058 419.46 393.907 420.323C393.745 421.249 393.406 422.075 392.89 422.801C392.389 423.514 391.743 424.088 390.953 424.523C390.178 424.945 389.315 425.187 388.364 425.249ZM404.958 424.162C403.766 424.24 402.775 424.033 401.985 423.54C401.207 423.047 400.666 422.31 400.362 421.328C400.059 420.346 400.027 419.168 400.269 417.792C400.51 416.416 400.96 415.205 401.62 414.161C402.279 413.116 403.101 412.289 404.084 411.681C405.081 411.071 406.181 410.727 407.385 410.648C408.36 410.584 409.195 410.715 409.89 411.04C410.585 411.366 411.05 411.855 411.286 412.507L409.917 413.672C409.415 412.679 408.486 412.227 407.13 412.316C405.888 412.397 404.853 412.904 404.026 413.836C403.2 414.756 402.645 416.028 402.36 417.655C402.077 419.268 402.187 420.498 402.69 421.343C403.193 422.187 404.047 422.57 405.25 422.492C405.986 422.443 406.635 422.277 407.198 421.993C407.764 421.696 408.258 421.274 408.679 420.727L409.667 421.738C409.181 422.438 408.525 423 407.699 423.425C406.885 423.85 405.971 424.095 404.958 424.162Z" fill="#242121"/>
<path d="M396.558 410.455C396.646 409.955 396.903 409.512 397.32 409.139C397.748 408.755 398.204 408.557 398.711 408.523C399.207 408.491 399.612 408.642 399.905 408.969C400.197 409.306 400.305 409.715 400.218 410.215C400.13 410.715 399.872 411.158 399.454 411.541C399.036 411.925 398.568 412.133 398.071 412.166C397.575 412.199 397.17 412.047 396.869 411.711C396.567 411.374 396.47 410.955 396.558 410.455ZM397.45 410.396C397.404 410.657 397.457 410.871 397.606 411.049C397.765 411.227 397.973 411.302 398.236 411.285C398.5 411.267 398.739 411.163 398.965 410.96C399.191 410.757 399.32 410.531 399.366 410.271C399.391 410.147 399.388 410.026 399.359 409.915C399.33 409.804 399.275 409.707 399.198 409.629C399.125 409.546 399.031 409.483 398.923 409.443C398.815 409.402 398.694 409.385 398.568 409.393C398.304 409.411 398.065 409.515 397.841 409.708C397.627 409.9 397.497 410.126 397.45 410.396Z" fill="#242121"/>
<path d="M471.921 367.839C470.425 367.937 469.378 367.443 468.779 366.357C468.183 365.259 468.079 363.603 468.467 361.388C468.856 359.174 469.549 357.472 470.547 356.281C471.547 355.078 472.795 354.428 474.29 354.33C475.786 354.232 476.825 354.732 477.409 355.832C478.008 356.918 478.113 358.568 477.725 360.782C477.336 362.996 476.642 364.704 475.642 365.908C474.656 367.097 473.416 367.741 471.921 367.839ZM472.187 366.319C473.024 366.265 473.734 365.785 474.318 364.881C474.903 363.978 475.348 362.656 475.653 360.918C475.96 359.166 475.974 357.873 475.694 357.038C475.417 356.191 474.86 355.795 474.024 355.849C472.313 355.962 471.152 357.763 470.539 361.253C470.234 362.991 470.22 364.284 470.498 365.132C470.788 365.978 471.351 366.374 472.187 366.319ZM482.465 367.148C480.969 367.246 479.922 366.752 479.324 365.666C478.727 364.568 478.623 362.911 479.011 360.697C479.4 358.483 480.093 356.781 481.091 355.59C482.091 354.387 483.339 353.737 484.835 353.639C486.33 353.541 487.37 354.041 487.953 355.141C488.552 356.226 488.657 357.877 488.269 360.091C487.88 362.305 487.186 364.013 486.186 365.216C485.2 366.406 483.96 367.05 482.465 367.148ZM482.731 365.628C483.568 365.574 484.278 365.094 484.863 364.19C485.447 363.286 485.892 361.965 486.197 360.226C486.504 358.475 486.518 357.182 486.238 356.347C485.961 355.5 485.404 355.104 484.568 355.158C482.857 355.271 481.696 357.072 481.083 360.562C480.778 362.3 480.765 363.593 481.042 364.441C481.332 365.287 481.895 365.683 482.731 365.628ZM491.405 360.071C491.012 360.096 490.71 359.992 490.501 359.759C490.304 359.524 490.241 359.207 490.311 358.807C490.381 358.407 490.559 358.073 490.843 357.807C491.141 357.541 491.486 357.394 491.879 357.369C492.259 357.344 492.546 357.455 492.741 357.702C492.95 357.935 493.021 358.246 492.953 358.634C492.885 359.021 492.701 359.355 492.402 359.634C492.117 359.9 491.785 360.046 491.405 360.071ZM490.249 366.656C489.856 366.682 489.555 366.578 489.346 366.345C489.149 366.11 489.085 365.793 489.156 365.393C489.226 364.992 489.403 364.659 489.688 364.393C489.987 364.114 490.334 363.962 490.726 363.936C491.107 363.911 491.394 364.022 491.589 364.269C491.798 364.502 491.868 364.819 491.798 365.22C491.73 365.607 491.546 365.941 491.246 366.22C490.962 366.486 490.629 366.632 490.249 366.656ZM498.04 366.127C496.544 366.225 495.497 365.731 494.898 364.645C494.302 363.547 494.198 361.891 494.586 359.677C494.975 357.462 495.668 355.76 496.666 354.569C497.666 353.366 498.914 352.716 500.409 352.618C501.905 352.52 502.944 353.02 503.528 354.12C504.127 355.206 504.232 356.856 503.844 359.07C503.455 361.284 502.761 362.992 501.761 364.196C500.775 365.385 499.535 366.029 498.04 366.127ZM498.306 364.608C499.143 364.553 499.853 364.073 500.437 363.169C501.022 362.266 501.467 360.944 501.772 359.206C502.079 357.454 502.093 356.161 501.813 355.326C501.536 354.479 500.979 354.083 500.143 354.138C498.432 354.25 497.27 356.051 496.658 359.541C496.353 361.279 496.339 362.573 496.617 363.42C496.907 364.266 497.47 364.662 498.306 364.608ZM508.584 365.436C507.088 365.534 506.041 365.04 505.443 363.954C504.846 362.856 504.742 361.2 505.13 358.985C505.519 356.771 506.212 355.069 507.21 353.878C508.21 352.675 509.458 352.025 510.954 351.927C512.449 351.829 513.489 352.329 514.072 353.429C514.671 354.515 514.776 356.165 514.388 358.379C513.999 360.593 513.305 362.301 512.305 363.505C511.319 364.694 510.079 365.338 508.584 365.436ZM508.85 363.916C509.687 363.862 510.397 363.382 510.982 362.478C511.566 361.575 512.011 360.253 512.316 358.514C512.623 356.763 512.637 355.47 512.357 354.635C512.08 353.788 511.523 353.392 510.687 353.446C508.976 353.559 507.815 355.36 507.202 358.85C506.897 360.588 506.883 361.881 507.161 362.729C507.451 363.575 508.014 363.971 508.85 363.916Z" fill="#242121"/>
<g clip-path="url(#clip4_16_401)">
<path d="M492.953 373.465C493.797 375.079 494.116 377.075 493.734 379.256C492.738 385.129 487.022 390.199 480.999 390.594C478.967 390.727 477.141 390.29 475.668 389.447C476.886 392.95 480.268 395.162 484.687 394.873C490.925 394.464 496.85 389.207 497.918 383.12C498.708 378.617 496.606 374.929 492.953 373.465Z" fill="#FFCE31"/>
</g>
<path d="M465.21 418.469L467.453 418.322L469.066 409.128L466.221 410.78L466.543 408.941L470.203 406.716L471.553 406.628L469.525 418.186L471.749 418.04L471.473 419.616L464.933 420.045L465.21 418.469ZM480.003 416.906L473.978 417.301L474.261 415.687L481.603 405.969L483.998 405.812L482.368 415.1L483.832 415.004L483.539 416.674L482.075 416.77L481.694 418.947L479.622 419.082L480.003 416.906ZM480.296 415.236L481.478 408.5L476.19 415.505L480.296 415.236ZM494.68 418.281C493.489 418.359 492.498 418.152 491.708 417.66C490.93 417.166 490.389 416.429 490.085 415.447C489.781 414.466 489.75 413.287 489.992 411.911C490.233 410.535 490.683 409.325 491.343 408.28C492.002 407.235 492.823 406.408 493.807 405.8C494.803 405.19 495.904 404.846 497.107 404.767C498.083 404.703 498.918 404.834 499.613 405.16C500.307 405.485 500.773 405.974 501.009 406.626L499.64 407.792C499.138 406.798 498.208 406.346 496.852 406.435C495.611 406.516 494.576 407.023 493.748 407.955C492.923 408.875 492.368 410.148 492.083 411.774C491.8 413.388 491.91 414.617 492.413 415.462C492.916 416.307 493.769 416.69 494.973 416.611C495.708 416.563 496.358 416.396 496.921 416.112C497.487 415.815 497.98 415.394 498.402 414.847L499.39 415.858C498.904 416.557 498.248 417.12 497.421 417.545C496.608 417.969 495.694 418.214 494.68 418.281Z" fill="#242121"/>
<path d="M486.28 404.574C486.368 404.074 486.626 403.632 487.042 403.258C487.471 402.874 487.926 402.676 488.433 402.643C488.93 402.61 489.334 402.762 489.628 403.089C489.919 403.426 490.028 403.834 489.94 404.334C489.853 404.835 489.595 405.277 489.176 405.661C488.758 406.044 488.291 406.253 487.794 406.285C487.297 406.318 486.893 406.166 486.591 405.83C486.289 405.494 486.193 405.075 486.28 404.574ZM487.173 404.516C487.127 404.776 487.18 404.99 487.329 405.168C487.488 405.346 487.695 405.421 487.959 405.404C488.222 405.387 488.461 405.282 488.687 405.079C488.913 404.877 489.043 404.65 489.089 404.39C489.113 404.266 489.111 404.145 489.082 404.034C489.053 403.924 488.998 403.826 488.921 403.748C488.847 403.666 488.754 403.602 488.646 403.562C488.538 403.521 488.417 403.505 488.291 403.513C488.027 403.53 487.788 403.635 487.564 403.827C487.35 404.02 487.22 404.246 487.173 404.516Z" fill="#242121"/>
</g>
<defs>
<filter id="filter0_d_16_401" x="-2.70896" y="-1.07732" width="664.781" height="555.184" filterUnits="userSpaceOnUse" color-interpolation-filters="sRGB">
<feFlood flood-opacity="0" result="BackgroundImageFix"/>
<feColorMatrix in="SourceAlpha" type="matrix" values="0 0 0 0 0 0 0 0 0 0 0 0 0 0 0 0 0 0 127 0" result="hardAlpha"/>
<feOffset dy="5.78288"/>
<feGaussianBlur stdDeviation="28.9144"/>
<feComposite in2="hardAlpha" operator="out"/>
<feColorMatrix type="matrix" values="0 0 0 0 0 0 0 0 0 0 0 0 0 0 0 0 0 0 0.04 0"/>
<feBlend mode="normal" in2="BackgroundImageFix" result="effect1_dropShadow_16_401"/>
<feBlend mode="normal" in="SourceGraphic" in2="effect1_dropShadow_16_401" result="shape"/>
</filter>
<clipPath id="clip0_16_401">
<rect width="22.8599" height="22.8599" fill="white" transform="matrix(0.997859 -0.0654031 -0.172789 0.984959 118.823 397.291)"/>
</clipPath>
<clipPath id="clip1_16_401">
<rect width="22.8599" height="22.8599" fill="white" transform="matrix(0.997859 -0.0654031 -0.172789 0.984959 208.546 391.41)"/>
</clipPath>
<clipPath id="clip2_16_401">
<rect width="22.8599" height="22.8599" fill="white" transform="matrix(0.997859 -0.0654031 -0.172789 0.984959 298.268 385.53)"/>
</clipPath>
<clipPath id="clip3_16_401">
<rect width="22.8599" height="22.8599" fill="white" transform="matrix(0.997859 -0.0654031 -0.172789 0.984959 387.991 379.649)"/>
</clipPath>
<clipPath id="clip4_16_401">
<rect width="22.8599" height="22.8599" fill="white" transform="matrix(0.997859 -0.0654031 -0.172789 0.984959 477.715 373.768)"/>
</clipPath>
</defs>
</svg>
