<svg width="82" height="83" viewBox="0 0 82 83" fill="none" xmlns="http://www.w3.org/2000/svg">
<g id="1690531446505 2" clip-path="url(#clip0_103_270)">
<path id="Vector" d="M41.8903 82.2841C31.1349 81.8884 22.2718 78.9611 14.6416 72.6448C7.524 66.8126 2.67681 58.6694 0.943603 49.6322C-1.59305 37.1874 1.08566 25.7877 8.82246 15.6765C15.3011 7.15337 24.0931 2.42504 34.4731 0.59357C42.8898 -0.887838 50.9817 0.441371 58.7439 4.05357C67.2518 8.01583 73.5174 14.2408 77.7435 22.5407C79.9181 26.6888 81.2802 31.2141 81.7565 35.8734C82.6037 45.1779 81.31 54.0612 76.3584 62.209C70.0422 72.5941 60.8848 78.9053 49.0437 81.3405C46.4157 81.8833 43.6609 82.0558 41.8903 82.2841ZM49.5003 28.3852C47.6993 28.3852 46.1722 28.4461 44.6502 28.3852C43.666 28.3345 43.1891 28.6693 42.8238 29.6028C40.8909 34.5087 39.0138 39.445 36.8475 44.2444C35.7567 46.6593 34.1282 48.8104 32.6468 51.0528C32.1904 51.6377 31.5983 52.1027 30.9218 52.4073C30.7054 52.5169 30.4681 52.579 30.2257 52.5895C29.9834 52.6 29.7416 52.5586 29.5165 52.4682C29.273 52.3363 29.1766 51.626 29.2628 51.2253C29.4887 50.2228 29.7958 49.2404 30.1811 48.2878C31.9906 43.6812 33.8204 39.0831 35.6704 34.4935C36.6141 32.1394 37.3396 29.6383 39.7849 28.3548C39.506 27.6551 39.2721 26.9383 39.0848 26.2087C38.8768 25.0825 38.1716 24.7984 37.2888 25.2245C35.8582 25.9246 34.5087 26.782 33.1338 27.5887C32.3576 28.0453 31.6524 28.6693 30.8204 28.9737C27.959 30.0188 24.981 30.795 22.1957 32.0177C20.2088 32.8753 18.3619 34.0263 16.7165 35.432C14.5198 37.3244 14.0632 41.0634 15.3214 43.6609C15.9889 44.9516 17.0287 46.0121 18.3059 46.705C19.5831 47.3978 21.039 47.6912 22.4849 47.5471V42.7275C21.3079 42.4231 20.1106 42.1795 19.8975 40.7489C19.7918 40.0969 19.9116 39.4283 20.2372 38.8536C20.5628 38.279 21.0747 37.8326 21.6884 37.5882C24.154 36.4163 26.7059 35.427 29.2223 34.3666L29.4353 34.7522C27.8017 38.7246 26.1833 42.7122 24.6005 46.71C23.6923 49.0082 23.0531 51.3673 23.3372 53.8786C23.403 54.9559 23.8765 55.9677 24.6615 56.7084C25.4464 57.4491 26.484 57.8631 27.5633 57.8662C29.5244 57.977 31.4651 57.4189 33.0678 56.2834C34.0825 55.5883 35.0464 54.7969 36.0357 54.0359C36.954 57.0393 38.2934 58.0184 41.4287 57.8662C44.564 57.714 46.9535 56.1819 48.9828 53.9446C51.0891 51.533 52.7455 48.763 53.8735 45.7664C55.6221 41.3695 57.3792 36.9912 59.1447 32.6316C59.9209 30.7088 60.9812 29.1716 63.4316 29.4861C63.5788 29.4868 63.7238 29.4504 63.8532 29.3804C63.9826 29.3103 64.0924 29.2089 64.1723 29.0853C64.5224 27.817 64.7862 26.5487 65.0805 25.255C59.6419 24.0018 55.7963 25.879 53.7467 30.7595C51.8848 35.1936 50.1345 39.6733 48.3131 44.1277C47.2072 46.8419 45.8374 49.4445 43.6254 51.4079C42.9456 52.0167 41.865 52.1841 40.9721 52.5494C40.9721 51.6413 40.7184 50.6368 41.0076 49.8301C42.2658 46.3549 43.6711 42.9304 45.0662 39.4958C46.4969 35.8683 47.9682 32.2308 49.5105 28.3852H49.5003ZM62.8736 48.0037L60.479 54.0917C62.2698 54.0917 63.7969 54.1526 65.3138 54.0511C65.5607 54.0064 65.7946 53.9077 65.999 53.7621C66.2033 53.6165 66.373 53.4276 66.4959 53.2089C67.1504 51.8341 67.7084 50.4085 68.2259 48.9727C68.3049 48.6376 68.5094 48.3456 68.7973 48.1568C69.0852 47.968 69.4345 47.8969 69.7733 47.958C71.067 48.0189 72.3657 48.0138 73.6594 47.958C73.8692 47.9566 74.0763 47.9106 74.2669 47.8232C74.4576 47.7357 74.6275 47.6088 74.7654 47.4507C75.4554 45.9997 76.0287 44.493 76.744 42.768H70.8133L73.1876 36.7359C72.6194 36.7105 72.2541 36.6699 71.8889 36.6801C70.4176 36.7206 68.6216 36.2793 67.5715 36.9692C66.5213 37.6592 66.2575 39.4298 65.8516 40.7894C65.3849 42.3419 64.5985 43.0826 62.904 42.8188C61.9356 42.7249 60.9603 42.7249 59.9919 42.8188C59.6622 42.8188 59.1447 42.9355 59.0432 43.1536C58.338 44.6756 57.714 46.2483 56.9834 48.0037H62.8736Z" fill="#5065A8"/>
</g>
<defs>
<clipPath id="clip0_103_270">
<rect width="82" height="82.2892" fill="white"/>
</clipPath>
</defs>
</svg>
