<svg width="60" height="67" viewBox="0 0 60 67" fill="none" xmlns="http://www.w3.org/2000/svg">
<path id="Vector" d="M26.25 49.7805H33.75V30.2439H26.25V49.7805ZM30 23.7317C31.0625 23.7317 31.9538 23.4191 32.6738 22.794C33.3937 22.1688 33.7525 21.396 33.75 20.4756C33.75 19.553 33.39 18.7792 32.67 18.154C31.95 17.5288 31.06 17.2173 30 17.2195C28.9375 17.2195 28.0463 17.5321 27.3263 18.1573C26.6063 18.7824 26.2475 19.5552 26.25 20.4756C26.25 21.3982 26.61 22.172 27.33 22.7972C28.05 23.4224 28.94 23.7339 30 23.7317ZM30 66.061C21.3125 64.1616 14.14 59.8331 8.4825 53.0757C2.825 46.3182 -0.00249834 38.8161 1.65636e-06 30.5695V10.7073L30 0.939026L60 10.7073V30.5695C60 38.8183 57.1712 46.3214 51.5137 53.0789C45.8562 59.8364 38.685 64.1638 30 66.061ZM30 59.2232C36.5 57.4323 41.875 53.8506 46.125 48.478C50.375 43.1055 52.5 37.136 52.5 30.5695V15.1845L30 7.85823L7.5 15.1845V30.5695C7.5 37.136 9.625 43.1055 13.875 48.478C18.125 53.8506 23.5 57.4323 30 59.2232Z" fill="#242121"/>
</svg>
