<svg width="80" height="80" viewBox="0 0 80 80" fill="none" xmlns="http://www.w3.org/2000/svg">
<g id="Broken / Search / Rounded Magnifer">
<path id="Vector" d="M64.5614 62.2661C64.4151 62.5186 64.1507 62.8207 63.6219 63.425C63.0931 64.0293 62.8287 64.3315 62.6078 64.4987C61.3138 65.4781 59.5631 64.9733 58.8305 63.4096C58.7054 63.1426 58.5981 62.7333 58.3835 61.9146C58.1489 61.0201 58.0316 60.5729 58.009 60.2581C57.8755 58.4049 59.2293 56.8577 60.8509 57.0103C61.1263 57.0362 61.5176 57.1702 62.3003 57.4382C63.0166 57.6835 63.3748 57.8062 63.6084 57.9492C64.9766 58.7865 65.4183 60.7872 64.5614 62.2661Z" stroke="#EFC02A" stroke-width="3" stroke-linecap="round"/>
<path id="Vector_2" d="M26.75 18.2108C30.2065 16.1687 34.2196 15 38.5 15C51.4787 15 62 25.7452 62 39C62 52.2548 51.4787 63 38.5 63C25.5213 63 15 52.2548 15 39C15 34.6286 16.1444 30.5301 18.1439 27" stroke="#EFC02A" stroke-width="3" stroke-linecap="round"/>
</g>
</svg>
