<svg width="80" height="80" viewBox="0 0 80 80" fill="none" xmlns="http://www.w3.org/2000/svg">
<g id="Outline / Like / Star Shine">
<path id="Vector" fill-rule="evenodd" clip-rule="evenodd" d="M40 4.16666C41.3807 4.16666 42.5 5.28594 42.5 6.66666V13.3333C42.5 14.714 41.3807 15.8333 40 15.8333C38.6193 15.8333 37.5 14.714 37.5 13.3333V6.66666C37.5 5.28594 38.6193 4.16666 40 4.16666ZM61.7681 18.2318C62.7444 19.2081 62.7444 20.7911 61.7681 21.7674L60.6239 22.9116C59.6476 23.8879 58.0647 23.8879 57.0884 22.9116C56.1121 21.9353 56.1121 20.3524 57.0884 19.376L58.2326 18.2318C59.2089 17.2555 60.7918 17.2555 61.7681 18.2318ZM18.2322 18.2322C19.2085 17.2559 20.7914 17.2559 21.7677 18.2322L22.9119 19.3764C23.8882 20.3527 23.8882 21.9357 22.9119 22.912C21.9356 23.8883 20.3527 23.8883 19.3764 22.912L18.2322 21.7678C17.2559 20.7914 17.2559 19.2085 18.2322 18.2322ZM39.8123 26.2735C39.2249 27.0405 38.5351 28.2646 37.4389 30.2312L36.8927 31.211C36.8524 31.2833 36.8116 31.3571 36.7701 31.4322C36.3059 32.2728 35.7557 33.2691 34.8531 33.9542C33.9357 34.6507 32.8267 34.8967 31.9159 35.0987C31.835 35.1166 31.7556 35.1342 31.6781 35.1518L30.6176 35.3917C28.4829 35.8747 27.1736 36.1783 26.3096 36.5188C26.1243 36.5918 25.993 36.6537 25.9018 36.7024C25.9508 36.8107 26.0321 36.966 26.166 37.1787C26.6828 37.9996 27.5824 39.0616 29.0335 40.7584L29.7565 41.6039C29.8089 41.6651 29.8624 41.7272 29.9166 41.7902C30.5449 42.5195 31.2761 43.3684 31.6136 44.4538C31.948 45.5292 31.8359 46.646 31.7381 47.6205C31.7296 47.7049 31.7212 47.7882 31.7133 47.8704L31.604 48.9985C31.3849 51.2589 31.2532 52.6813 31.2974 53.6726C31.3059 53.8639 31.3202 54.0113 31.3358 54.1233C31.4153 54.1059 31.5114 54.082 31.6264 54.049C32.5168 53.7939 33.7483 53.2348 35.7472 52.3144L36.7402 51.8572C36.8135 51.8234 36.8885 51.7885 36.9651 51.7528C37.8092 51.3596 38.8498 50.8747 40 50.8747C41.1501 50.8747 42.1907 51.3596 43.0349 51.7528C43.1115 51.7885 43.1864 51.8235 43.2597 51.8572L44.2528 52.3144C46.2517 53.2348 47.4831 53.7939 48.3735 54.049C48.4885 54.082 48.5846 54.1059 48.6641 54.1233C48.6797 54.0113 48.694 53.8639 48.7025 53.6726C48.7467 52.6813 48.615 51.2589 48.396 48.9984L48.2866 47.8704C48.2787 47.7882 48.2703 47.7049 48.2618 47.6205C48.164 46.646 48.0519 45.5292 48.3863 44.4538C48.7238 43.3683 49.4551 42.5195 50.0833 41.7902C50.1376 41.7272 50.191 41.6651 50.2434 41.6039L50.9665 40.7584C52.4175 39.0616 53.3172 37.9996 53.8339 37.1787C53.9678 36.966 54.0492 36.8107 54.0981 36.7024C54.0069 36.6537 53.8756 36.5918 53.6903 36.5188C52.8264 36.1783 51.517 35.8747 49.3824 35.3917L48.3218 35.1518C48.2443 35.1342 48.1649 35.1166 48.084 35.0987C47.1732 34.8967 46.0642 34.6507 45.1468 33.9542C44.2442 33.2691 43.694 32.2727 43.2298 31.4322C43.1883 31.3571 43.1475 31.2832 43.1072 31.211L42.561 30.2312C41.4648 28.2646 40.775 27.0405 40.1876 26.2735C40.1168 26.1809 40.0543 26.1044 40 26.0412C39.9456 26.1044 39.8832 26.1809 39.8123 26.2735ZM54.2847 36.826C54.2832 36.8262 54.2735 36.8187 54.2601 36.8027C54.2794 36.8178 54.2862 36.8258 54.2847 36.826ZM54.1638 36.5265C54.1645 36.507 54.1672 36.4959 54.1684 36.4953C54.1696 36.4946 54.1693 36.5044 54.1638 36.5265ZM48.5912 54.436C48.5908 54.4352 48.5938 54.427 48.6016 54.4135C48.5955 54.43 48.5916 54.4367 48.5912 54.436ZM48.9636 54.1674C48.9811 54.1647 48.9912 54.1648 48.9919 54.1656C48.9926 54.1663 48.9839 54.1677 48.9636 54.1674ZM31.008 54.1656C31.0087 54.1648 31.0189 54.1647 31.0363 54.1674C31.016 54.1677 31.0073 54.1663 31.008 54.1656ZM31.3983 54.4135C31.4061 54.427 31.4092 54.4352 31.4087 54.436C31.4083 54.4367 31.4045 54.43 31.3983 54.4135ZM25.8315 36.4953C25.8327 36.4959 25.8355 36.5069 25.8361 36.5265C25.8306 36.5045 25.8303 36.4947 25.8315 36.4953ZM25.7398 36.8027C25.7264 36.8187 25.7167 36.8262 25.7152 36.826C25.7138 36.8258 25.7205 36.8178 25.7398 36.8027ZM35.8426 23.2335C36.7065 22.1054 38.012 20.8333 40 20.8333C41.9879 20.8333 43.2934 22.1054 44.1573 23.2335C44.9943 24.3264 45.8603 25.8803 46.8379 27.6345L47.4745 28.7765C47.793 29.3479 47.9642 29.6513 48.1059 29.8644C48.1341 29.9068 48.1562 29.9379 48.1728 29.9601C48.1936 29.9677 48.2211 29.9771 48.2563 29.9882C48.4843 30.0601 48.8036 30.1344 49.4252 30.275L50.6705 30.5568C52.5611 30.9843 54.257 31.3678 55.5235 31.867C56.8783 32.4009 58.3798 33.3105 58.9582 35.1705C59.5281 37.0032 58.841 38.6102 58.0653 39.8424C57.3291 41.0119 56.1807 42.3546 54.8855 43.8688L54.0434 44.8535C53.6216 45.3468 53.3995 45.6093 53.2501 45.8148C53.2054 45.8763 53.179 45.9173 53.1643 45.9416C53.1621 45.9722 53.16 46.0264 53.1617 46.1131C53.167 46.3771 53.1997 46.7318 53.2633 47.3881L53.3901 48.6963C53.5865 50.7217 53.7595 52.505 53.6976 53.8951C53.6336 55.3304 53.2989 57.0847 51.753 58.2583C50.1663 59.4628 48.3764 59.2511 46.9963 58.8556C45.6909 58.4816 44.1047 57.751 42.3352 56.9361L42.1616 56.8561L41.1686 56.3989C40.5868 56.131 40.2855 55.9945 40.0597 55.9123C40.0367 55.9039 40.0168 55.897 40 55.8914C39.9831 55.897 39.9633 55.9039 39.9402 55.9123C39.7144 55.9945 39.4131 56.131 38.8313 56.3989L37.6647 56.9361C35.8952 57.751 34.3091 58.4816 33.0037 58.8556C31.6236 59.2511 29.8336 59.4628 28.2469 58.2583C26.701 57.0847 26.3663 55.3304 26.3023 53.8951C26.2404 52.505 26.4134 50.7218 26.6098 48.6963L26.7366 47.3881C26.8002 46.7318 26.8329 46.3771 26.8382 46.1131C26.8399 46.0264 26.8378 45.9722 26.8356 45.9416C26.8209 45.9173 26.7945 45.8763 26.7498 45.8148C26.6004 45.6093 26.3783 45.3468 25.9565 44.8535L25.1144 43.8688C23.8193 42.3546 22.6709 41.0119 21.9346 39.8424C21.1589 38.6102 20.4718 37.0032 21.0418 35.1705C21.6202 33.3105 23.1216 32.4009 24.4764 31.867C25.743 31.3678 27.4388 30.9843 29.3294 30.5568C29.3908 30.5429 29.4524 30.529 29.5142 30.515L30.5747 30.275C31.1963 30.1344 31.5156 30.0601 31.7436 29.9882C31.7788 29.9771 31.8063 29.9677 31.8272 29.9601C31.8437 29.9379 31.8658 29.9068 31.894 29.8644C32.0357 29.6513 32.2069 29.3479 32.5254 28.7765L33.0716 27.7967C33.1018 27.7424 33.132 27.6884 33.162 27.6345C34.1396 25.8803 35.0057 24.3264 35.8426 23.2335ZM26.8331 45.9153C26.8323 45.9115 26.832 45.9093 26.8321 45.9091L26.8331 45.9153ZM48.2104 30.0073C48.2104 30.0073 48.2119 30.0089 48.2104 30.0073V30.0073ZM4.16663 40C4.16663 38.6193 5.28591 37.5 6.66663 37.5H13.3333C14.714 37.5 15.8333 38.6193 15.8333 40C15.8333 41.3807 14.714 42.5 13.3333 42.5H6.66663C5.28591 42.5 4.16663 41.3807 4.16663 40ZM64.1666 40C64.1666 38.6193 65.2859 37.5 66.6666 37.5H73.3333C74.714 37.5 75.8333 38.6193 75.8333 40C75.8333 41.3807 74.714 42.5 73.3333 42.5H66.6666C65.2859 42.5 64.1666 41.3807 64.1666 40ZM22.9115 57.0884C23.8879 58.0647 23.8879 59.6476 22.9115 60.6239L21.7681 61.7674C20.7917 62.7437 19.2088 62.7437 18.2325 61.7674C17.2562 60.7911 17.2562 59.2082 18.2325 58.2319L19.376 57.0884C20.3523 56.1121 21.9352 56.1121 22.9115 57.0884ZM57.0883 57.0891C58.0646 56.1128 59.6475 56.1128 60.6238 57.0891L61.7673 58.2326C62.7436 59.2089 62.7436 60.7919 61.7673 61.7682C60.791 62.7445 59.2081 62.7445 58.2318 61.7682L57.0883 60.6247C56.112 59.6484 56.112 58.0655 57.0883 57.0891ZM40 64.1667C41.3807 64.1667 42.5 65.2859 42.5 66.6667V73.3333C42.5 74.714 41.3807 75.8333 40 75.8333C38.6193 75.8333 37.5 74.714 37.5 73.3333V66.6667C37.5 65.2859 38.6193 64.1667 40 64.1667Z" fill="#5065A8"/>
</g>
</svg>
